<svg xmlns="http://www.w3.org/2000/svg" viewBox="0 0 1607.58 417.23"><defs><style>.cls-1{fill:#10a882;}</style></defs><g id="Layer_2" data-name="Layer 2"><g id="Layer_1-2" data-name="Layer 1"><g id="Mobile-CEIC-Green"><path class="cls-1" d="M774.09,368.29c-35.94,13-55.73,17.19-78.12,17.19-60.42,0-105.73-24-134.37-52.08C527.74,299.55,509,252.15,509,206.84c0-49.48,21.36-96.35,52.61-128.12,30.72-31.25,77.08-54.17,131.24-54.17,16.67,0,43.75,2.61,81.25,17.71V150.07c-29.17-35.93-63.54-38-78.64-38-26,0-45.84,7.81-62.5,22.92-21.36,19.79-30.21,46.87-30.21,71.35,0,24,9.9,50.52,28.12,67.71,15.11,14.06,39.07,24,64.59,24,13.54,0,46.87-1.56,78.64-36.45Z"/><path class="cls-1" d="M1072.56,106.84H965.27v57.82h101.56v76.56H965.27v59.89h107.29v76.56H875.17V30.29h197.39Z"/><path class="cls-1" d="M1263.85,30.29V377.67h-90.1V30.29Z"/><path class="cls-1" d="M1607.58,368.29c-35.93,13-55.72,17.19-78.12,17.19-60.42,0-105.73-24-134.37-52.08-33.85-33.85-52.6-81.25-52.6-126.56,0-49.48,21.35-96.35,52.6-128.12,30.73-31.25,77.08-54.17,131.25-54.17,16.66,0,43.74,2.61,81.24,17.71V150.07c-29.16-35.93-63.54-38-78.64-38-26,0-45.83,7.81-62.5,22.92-21.35,19.79-30.21,46.87-30.21,71.35,0,24,9.9,50.52,28.13,67.71,15.1,14.06,39.06,24,64.58,24,13.54,0,46.87-1.56,78.64-36.45Z"/><path class="cls-1" d="M208.07,416.23c-.29-6.3-1.19-12.48-.88-18.93,1.11-23.51,1.76-47.47,1.76-71l1.9-8.72c-.3,6.63-4.41,12.19-7.09,18.12-.35.76-1.17,4.17-1.85,4.47-1.84.81-1.53-2.18-3.37-1.7s-6,7.44-7.18,9.15c-1,1.43-7.53,9.7-8.18,5.23-1.72.77-2.67,3.39-4,4.8-1.48,1.59-2.95,2.91-4.26,4.6a93.17,93.17,0,0,1-8.56,10.13c-4.76,4.54-2.2-3.27-1.25-6.08a103.17,103.17,0,0,1,4.41-10.83,37.05,37.05,0,0,1,8.39-11.59c-.68.25-2.43.48-2.73-.64s2.08-2.32,2.68-2.92c1.53-1.55,4-3.66,5.07-5.37a11.52,11.52,0,0,1-1.22-.36c.1-3.27,8.45-9.31,10.93-11.18s8.49-7.77,10.91-7.19l-.76-.81c-3.37,2.34-6.74,4.08-10.05,6.56-1.93,1.44-4,2.56-6,4-.7.51-7.38,5.35-5,1.72-5.16,2.25-10.13,10.19-16.16,9.9-.22-1.48,1.42-2.45,1.94-3.77-1.65-.59-4.8,1.8-6.51,2.51a66.4,66.4,0,0,1-8,2.84c-3.23.88-12.56,1.48-6.41-3.62-4.51,2-9.17,2.47-13.81,3.49-2.09.46-4.24,1.6-6.41.74-3.44-1.37-.58-4.35,2-5.68v-.27c-6.63,1.18-12.6,5.72-19.82,4,.52-2.61-4.52-1.87-6.34-1.87a78.79,78.79,0,0,0-8,.28c-4.22.44-9.14,2.78-13.32,2.43l.76.81c-2.24-2.59,8.11-9.19,10-10.22,4-2.11,8.41-3.06,12.54-4.18-2.36-3.17,12.5-7.53,14.53-8.54a3.1,3.1,0,0,1-2.12-1.63c5-2.64,10-1.9,15.42-2.27a4.77,4.77,0,0,1-2.36-2.08c6.23-2.88,12.52-.51,18.94-1.18-5.94-3.21,5.66-3.64,7.63-3.19,2.87.65,6.17,1.11,8.78,2.17h.5c-2.93-2.2,1.81-2.5,3-2.44a30.23,30.23,0,0,1,7.29,1c2.54.76,4.95,2.06,7.55,2.51s1.06-.51,2.89-1.12c1.07-.35,13.69-.75,15.69.17,0,0-24.87-7.73-22.79-11l-.47.19c-3-.18-5.7-1.09-8.6-1.73-1.48-.34-9-1.89-5.35-4.55a53.75,53.75,0,0,1-12.19-1.74c-3.51-.94-8.88-4.2-4.36-7.1l-.39.44c-3.19.52-9.92-1.73-13.23-2.94-1.09-.39-5.74-1.85-5.77-3.44,0-.77,3.2-2.59,3.89-3.32a42.5,42.5,0,0,1-13.67-3.48c-2.43-1.12-9.83-7.07-3.4-8.47l-.09-.26c-1.85,1.67-8.42-1-10.62-2.16-5.72-3.16-.58-3.35,1.19-7.11-1.42-1.18-4.3-.82-6.11-1.34a44.49,44.49,0,0,1-7.31-2.9c-1.67-.84-4.76-2.71-4.4-5,.26-1.63,2.57-2.73,3.42-3l.73.57c-3.5-2-8.13-2-11.87-3.84-1.31-.63-4.82-1.77-5.1-3.6s2.33-2.52,3.44-3.89c-3.7-1.5-7.83-1.26-11.32-3.68-1.18-.81-3.2-2.38-3-4,.18-1.41,1.9-2.12,2.39-3.23l-.47.18a40.49,40.49,0,0,1-9.56-3.32c-1.33-.73-3-2.09-2.86-3.91s1.67-2.1,2.35-3.49c-2.23-2.2-6.48-1.61-8.94-3.57-3.38-2.68.85-4.32,2.77-5.83-2.45-1.8-18.47-9-9.14-12.27l.23-.09c-1.29-1.46-17.74-9.89-10.43-13.46-1.36-1.31-3.25-2.12-4.8-3.33-1.83-1.41-1.59-2.11-2.39-4-2.14-4.85-9.18-8.84-13-12.78-2.19-2.29-12-10.29-10.43-13.48L0,138.8c3.6-1.94,12,4.45,15.11,6.29,6.44,3.73,12.34,8.25,18.64,12.14,2.29-2.44,9.07,4.69,11.11,6,3.15-4.39,11.73,1.64,12.89,5.63l1-.11c3.94-7.51,15,7.08,18.5,11.09,1-2.2,1.28-5,4.18-4.94,2.21.05,4.09,2.7,5.44,4.28,2.72,3.16,6.37,7.6,7.95,10.85l-.24.1c2.31-.81,1.26-7.31,4.58-7.07,2.92.22,4.67,7.09,6.3,9,2.28-5.13,6.3,8.71,7.1,10,3-1,.63-6.74,4.36-2.61a61.14,61.14,0,0,1,4.77,6.77l.15-.34c2.29-3.31,4.53,7.44,4.74,8.72-.21-2.78,1.47-3.52,3.22-2.2,1.38,1.05,2.31,3.49,3.14,5,1.63,2.91,5.38,7.72,5.67,10.45l.24-.1c1.6-6.19,5.47.71,7,3.17,2.12,3.47,4,7.2,6,10.67,1.93-4.8,7.82,4.73,8.92,6.63,2.52-2.75,5.56,6.45,6.26,8.17,0-.34.12-.76.15-1.12,3.81-1.27,6.89,7.89,8.11,10.58,2.78-1.43,5.08,7.22,5.78,9.3l.09.25c.21-.31,1.37-.61,1.66-.75,1.85,1.13,2.76,4.87,8.67,11.38.25-6.92,14.2,11.86,16.74,16.23,0,0-9.93-21.93-3.7-22.95-2.59-4.66-7.69-11.8-6.51-15.33.34.1.72.12,1.07.22.29-1.18-6.25-13.73-1.29-11.07l-.25-.54c-1.59-4-4-7.57-5.84-11.43-1.4-2.94-4.41-9.45,1.06-8.37-1.64-4-3.94-7.68-5.71-11.6-.61-1.36-2.2-4.41-1.83-6,.59-2.52,2.22-1.25,4-.84,0-4.27-3.35-10.05-5.08-13.85-2-4.34-2.86-10.25,3-7.77h-.5c-3-4.23-5.88-7.76-8-12.73-.56-1.34-2.55-5.05-1.35-6.18.58-.55,4.44-.11,5.51-.57-.23-2.34.2-4.48-.85-6.53a33.93,33.93,0,0,1-2.81-7.3c-1-4,.14-7.91,4.46-5.4v.54c-.7-1.72-9.2-10.29-4.86-11.64-1.63-1.6-3.16-7.41-2.37-9.73,1.07-3.14,4.58-2,6.73-1.91l-.5-.27c-2-4.51-2.25-9.23-3.14-14.08-.29-1.54-1.51-5.93-.69-7.45,1.31-2.42,4.58-.72,6.24.33-1.08-2.44-1.22-5-1.83-7.76-.22-1-1.19-3.29-.17-4,.53-.37,2.27.68,2.71.49l-.25-.27c-.18.18.23.69-.25.32-1-3-2.9-7.1-3-10.33-.24-6.6,4.38-2,7.26-2.21.12-3.64-1.21-7.29-1.23-11.07,0-2.2-.71-8.63,1.7-9.7,3.24-1.45,7.89,6.11,7.21-1.32a67.28,67.28,0,0,1-.27-10.35c.24-3.77,2-5.89,4.78-2.71V49.89a15.92,15.92,0,0,1-.25-10c1.86-6.94,2.56-14.43,3.53-21.58.45-3.36.77-6.72,1.12-10.09.27-2.62,3.41-7.82,5.76-8.19s5.08,6.58,5.36,9.2c.35,3.37.67,6.72,1.12,10.08,1,7.16,1.67,14.64,3.52,21.59a15.75,15.75,0,0,1-.25,10V52c2.82-3.19,4.54-1.06,4.79,2.7A67.2,67.2,0,0,1,226.1,65c-.68,7.43,4-.13,7.22,1.32,2.4,1.07,1.7,7.5,1.69,9.7,0,3.78-1.34,7.44-1.23,11.07,2.88.26,7.51-4.39,7.26,2.21-.12,3.24-2,7.28-3,10.34-.48.37-.07-.14-.24-.33l-.25.28c.43.19,2.18-.87,2.71-.5,1,.72,0,3-.17,4a41.28,41.28,0,0,1-2.77,7.76c1.67-1,4.94-2.75,6.25-.33.82,1.53-.41,5.91-.69,7.45-.89,4.85-.25,9.57-2.21,14.09l-.51.27c2.16-.1,5.67-1.24,6.74,1.91.78,2.31-.75,8.13-2.38,9.73,4.35,1.35-2.29,9.91-3,11.64v-.55c4.33-2.51,5.46,1.41,4.47,5.4-.64,2.58.25,5-.95,7.3-1.05,2-3.41,4.19-3.64,6.53,1.07.47,4.93,0,5.51.57,1.2,1.14-.8,4.84-1.36,6.19-2.06,5-5,8.5-7.94,12.72h-.5c5.81-2.47,4.93,3.44,2.95,7.78-1.73,3.79-5.08,9.57-5.08,13.85,1.77-.41,3.41-1.69,4,.83.37,1.55-1.22,4.61-1.83,6-1.78,3.93-4.07,7.61-5.71,11.6,5.47-1.08,2.46,5.43,1.06,8.38-1.83,3.85-4.25,7.44-5.84,11.42l-.25.54c5-2.65-1.58,9.89-1.29,11.07.35-.09.73-.12,1.07-.22,1.18,3.54-3.93,10.67-6.51,15.33,6.23,1-3.7,22.95-3.7,22.95,2.54-4.37,16.49-23.14,16.74-16.22,5.9-6.52,6.81-10.25,8.67-11.39.29.14,1.45.44,1.66.76l.08-.26c.71-2.08,3-10.73,5.79-9.29,1.22-2.7,4.3-11.85,8.1-10.59,0,.36.14.78.16,1.12.7-1.72,3.74-10.92,6.25-8.16,1.11-1.91,7-11.44,8.93-6.64,2.07-3.47,3.89-7.2,6-10.66,1.51-2.47,5.37-9.36,7-3.17l.23.09c.3-2.73,4.05-7.54,5.68-10.45.83-1.48,1.76-3.92,3.14-5,1.75-1.32,3.42-.57,3.22,2.21.21-1.29,2.45-12,4.73-8.73l.15.35a62.3,62.3,0,0,1,4.78-6.78c3.73-4.13,1.36,1.61,4.36,2.61.8-1.3,4.82-15.15,7.1-10,1.62-2,3.38-8.83,6.3-9,3.32-.25,2.26,6.26,4.58,7.06l-.24-.09c1.58-3.26,5.23-7.7,7.95-10.86,1.35-1.57,3.23-4.22,5.44-4.28,2.89-.07,3.17,2.75,4.17,4.94,3.5-4,14.57-18.59,18.51-11.09l1,.12c1.16-4,9.74-10,12.88-5.63,2.05-1.33,8.83-8.45,11.12-6,6.29-3.88,12.2-8.41,18.64-12.14,3.16-1.83,11.51-8.23,15.11-6.28l-.47-.19c1.58,3.19-8.24,11.2-10.43,13.49-3.78,3.93-10.82,7.92-13,12.78-.81,1.83-.57,2.53-2.39,4-1.55,1.2-3.45,2-4.8,3.33,7.31,3.57-9.14,12-10.44,13.45l.24.1c9.33,3.27-6.69,10.47-9.14,12.27,1.92,1.51,6.15,3.15,2.77,5.82-2.47,2-6.71,1.37-8.94,3.57.68,1.4,2.19,1.78,2.35,3.49s-1.53,3.19-2.86,3.91a40.68,40.68,0,0,1-9.56,3.33l-.47-.19c.49,1.11,2.21,1.82,2.39,3.23.21,1.67-1.81,3.24-3,4-3.49,2.41-7.62,2.18-11.32,3.67,1.11,1.38,3.73,2,3.44,3.89s-3.8,3-5.1,3.6c-3.74,1.81-8.38,1.87-11.87,3.85l.73-.58c.84.24,3.16,1.34,3.42,3,.35,2.28-2.73,4.15-4.4,5a44.44,44.44,0,0,1-7.31,2.89c-1.82.52-4.7.16-6.11,1.35,1.77,3.75,6.91,3.94,1.19,7.1-2.2,1.21-8.77,3.83-10.63,2.17l-.08.25c6.43,1.4-1,7.35-3.4,8.47a42.78,42.78,0,0,1-13.67,3.49c.68.72,3.91,2.55,3.89,3.31,0,1.59-4.68,3.05-5.77,3.45-3.32,1.2-10,3.46-13.23,2.94l-.39-.44c4.52,2.9-.85,6.16-4.36,7.1a53.75,53.75,0,0,1-12.19,1.74c3.61,2.65-3.87,4.21-5.36,4.54a54,54,0,0,1-8.59,1.73l-.48-.18c2.09,3.28-22.78,11-22.78,11,2-.92,14.61-.52,15.69-.16,1.83.6.21,1.57,2.89,1.11s5-1.75,7.55-2.5a30.74,30.74,0,0,1,7.29-1c1.19-.06,5.93.24,3,2.44h.5c2.61-1.06,5.9-1.51,8.78-2.17,2-.44,13.56,0,7.63,3.2,6.42.67,12.71-1.71,18.94,1.18a4.75,4.75,0,0,1-2.36,2.07c5.39.38,10.4-.37,15.42,2.27a3.07,3.07,0,0,1-2.12,1.63c2,1,16.89,5.38,14.52,8.55,4.14,1.11,8.58,2.07,12.55,4.17,1.93,1,12.29,7.63,10.05,10.23l.76-.82c-4.19.36-9.1-2-13.32-2.43a78.8,78.8,0,0,0-8-.27c-1.83,0-6.86-.75-6.34,1.87-7.22,1.68-13.2-2.86-19.82-4v.27c2.53,1.33,5.4,4.31,2,5.68-2.18.87-4.32-.28-6.41-.74-4.64-1-9.3-1.53-13.81-3.48,6.14,5.1-3.18,4.49-6.42,3.61a64.51,64.51,0,0,1-8-2.83c-1.71-.72-4.86-3.11-6.52-2.51.52,1.32,2.17,2.28,2,3.77-6,.28-11-7.66-16.16-9.9,2.41,3.63-4.27-1.21-5-1.73-1.92-1.43-4-2.54-6-4-3.3-2.47-6.67-4.22-10-6.55l-.76.81c2.41-.58,8.45,5.33,10.91,7.18s10.83,7.91,10.93,11.18a12.26,12.26,0,0,1-1.22.36c1.08,1.71,3.54,3.83,5.06,5.37.61.61,3,1.79,2.69,2.92s-2.06.9-2.74.65a36.78,36.78,0,0,1,8.39,11.59,99.46,99.46,0,0,1,4.42,10.83c.95,2.81,3.5,10.61-1.26,6.07a95.48,95.48,0,0,1-8.56-10.13c-1.3-1.69-2.77-3-4.25-4.59-1.31-1.42-2.27-4-4-4.81-.65,4.48-7.18-3.79-8.19-5.22-1.2-1.71-5.28-8.67-7.17-9.16s-1.54,2.51-3.38,1.7c-.67-.29-1.49-3.7-1.84-4.47-2.68-5.93-6.79-11.48-7.09-18.12l1.9,8.73c0,23.51.65,47.47,1.76,71,.3,6.45-.6,12.64-.88,18.93Z"/></g></g></g></svg>