<svg xmlns="http://www.w3.org/2000/svg" viewBox="0 0 1662.78 894.56"><defs><style>.cls-1{fill:#10a882;}</style></defs><g id="Layer_2" data-name="Layer 2"><g id="Layer_1-2" data-name="Layer 1"><g id="Primary-Green"><g id="text"><path class="cls-1" d="M706.23,884.79c-14.3,5.18-22.17,6.83-31.08,6.83-24,0-42-9.53-53.45-20.71a72.53,72.53,0,0,1-20.92-50.34,72.5,72.5,0,0,1,73.13-72.51c6.63,0,17.4,1,32.32,7V798c-11.6-14.3-25.28-15.13-31.28-15.13-10.36,0-18.24,3.11-24.86,9.12a38.56,38.56,0,0,0-12,28.38c0,9.53,3.94,20.09,11.19,26.93,6,5.59,15.53,9.53,25.69,9.53,5.38,0,18.64-.62,31.28-14.5Z"/><path class="cls-1" d="M855.59,871.11c-14.09,13.47-34,20.51-54.49,20.51s-40.39-7-54.48-20.51a71.67,71.67,0,0,1-21.75-51.58c0-18.44,7-37.91,21.75-51.79,14.09-13.46,34-20.51,54.48-20.51s40.4,7,54.49,20.51c14.71,13.88,21.75,33.35,21.75,51.79A71.67,71.67,0,0,1,855.59,871.11ZM773.14,793c-7.46,7.25-11,17.41-11,27.14a35.12,35.12,0,0,0,11,25.69,39.2,39.2,0,0,0,28,11c12.23,0,21.34-4.35,27.76-10.77a38.07,38.07,0,0,0,11.19-26.52A37.32,37.32,0,0,0,828.86,793a41.34,41.34,0,0,0-27.76-11C791.16,782,780.6,785.56,773.14,793Z"/><path class="cls-1" d="M977.19,865.31H927.06l-9.32,23.2H879.83l53-138.17H972l52,138.17H985.69ZM967.66,838l-15.53-44.75L937,838Z"/><path class="cls-1" d="M1074.6,750.34V858.06h43.09v30.45h-78.93V750.34Z"/><path class="cls-1" d="M1169.27,750.34V888.51h-35.84V750.34Z"/><path class="cls-1" d="M1249.46,780.79V888.51h-35.84V780.79H1184.2V750.34h94.67v30.45Z"/><path class="cls-1" d="M1329.88,750.34V888.51H1294V750.34Z"/><path class="cls-1" d="M1482.14,871.11c-14.09,13.47-34,20.51-54.49,20.51s-40.39-7-54.48-20.51a71.67,71.67,0,0,1-21.75-51.58c0-18.44,7-37.91,21.75-51.79,14.09-13.46,34-20.51,54.48-20.51s40.4,7,54.49,20.51c14.71,13.88,21.75,33.35,21.75,51.79A71.67,71.67,0,0,1,1482.14,871.11ZM1399.69,793c-7.46,7.25-11,17.41-11,27.14a35.12,35.12,0,0,0,11,25.69,39.2,39.2,0,0,0,28,11c12.23,0,21.34-4.35,27.76-10.77a38,38,0,0,0,11.19-26.52A37.28,37.28,0,0,0,1455.41,793a41.34,41.34,0,0,0-27.76-11C1417.71,782,1407.15,785.56,1399.69,793Z"/><path class="cls-1" d="M1525,888.51V750.34h35.84l66.08,84.52V750.34h35.84V888.51h-35.84L1560.86,804v84.52Z"/><path class="cls-1" d="M647.53,500.82V681.05H600.78V500.82Z"/><path class="cls-1" d="M732.1,500.82V641.33h56.21v39.72H685.36V500.82Z"/><path class="cls-1" d="M857.75,500.82V641.33H914v39.72H811V500.82Z"/><path class="cls-1" d="M983.93,500.82V681.05H937.19V500.82Z"/><path class="cls-1" d="M1019.06,681.05V500.82h46.75L1152,611.07V500.82h46.75V681.05H1152l-86.19-110.24V681.05Z"/><path class="cls-1" d="M1396.27,658.35c-18.37,17.57-44.31,26.75-71.06,26.75s-52.69-9.18-71.07-26.75c-19.18-18.37-28.37-43.5-28.37-67.28,0-24.05,9.19-49.45,28.37-67.55,18.38-17.56,44.32-26.75,71.07-26.75s52.69,9.19,71.06,26.75c19.19,18.1,28.38,43.5,28.38,67.55C1424.65,614.85,1415.46,640,1396.27,658.35ZM1288.73,556.49c-9.73,9.45-14.32,22.69-14.32,35.39a45.83,45.83,0,0,0,14.32,33.51c8.65,8.38,20.81,14.32,36.48,14.32,15.94,0,27.83-5.67,36.21-14.05A49.67,49.67,0,0,0,1376,591.07a48.63,48.63,0,0,0-14.59-34.58,54,54,0,0,0-36.21-14.33C1312.24,542.16,1298.46,546.76,1288.73,556.49Z"/><path class="cls-1" d="M1501.23,500.82V681.05h-46.75V500.82Z"/><path class="cls-1" d="M1549.84,627c10,9.46,25.12,18.37,41.34,18.37,9.46,0,15.13-3,18.1-6.21a16.14,16.14,0,0,0,4.6-11.35,14.12,14.12,0,0,0-5.14-10.81c-4.59-4-11.62-5.94-23.24-9.45l-12.16-3.79c-7.56-2.43-18.64-6.48-25.94-14.59-9.18-10-10.26-22.7-10.26-31.88,0-22.16,8.64-35.67,16.48-43.51,9.19-9.18,24.32-17,46.2-17,17.84,0,38.64,5.67,55.67,14.59l-18.65,36.48c-14-11.08-24.59-12.16-30.8-12.16-4.59,0-10.81,1.08-15.4,5.4-2.7,2.71-4.6,5.68-4.6,9.73,0,3.24.54,5.68,2.44,8.11,1.35,1.62,4.59,4.86,15.67,8.1l14.32,4.33c11.35,3.51,23.24,7.56,32.69,17.83,9.19,9.73,11.62,19.73,11.62,32.16,0,16.48-4,32.42-17,45.39-15.4,15.4-34,18.37-53.23,18.37-11.35,0-22.16-1.08-35.4-5.94a125.67,125.67,0,0,1-27.29-14.32Z"/><path class="cls-1" d="M718.6,261.8h-64v34.51h60.62V342H654.56v35.75h64v45.7H600.78V216.1H718.6Z"/><path class="cls-1" d="M980.35,427.18l-49.43,7.46-17.41-19.89c-18.34,9.95-35.12,13.36-54.4,13.36-43.21,0-70.26-16.78-86.42-34.19-19.89-21.14-29.22-49.43-29.22-74.92a107.36,107.36,0,0,1,32-76.16c20.83-20.21,50.36-31.4,82.07-31.4,29.53,0,60.62,10.26,82.38,31.09,17.72,17.09,32,44.14,32,78a100.8,100.8,0,0,1-8.4,41.66,85.45,85.45,0,0,1-19,28.29Zm-88.6-92.95,14.3,15.55a54.24,54.24,0,0,0,9.64-30.47c0-12.74-6.53-28.29-16.79-38.55-11.19-11.19-28-17.09-41.34-17.09a57.66,57.66,0,0,0-41,17.09,61,61,0,0,0-16.78,41.66A52.49,52.49,0,0,0,815.28,360c10,9.64,25.8,15.86,42,15.86A66.34,66.34,0,0,0,874,373.71l-32.95-32.95Z"/><path class="cls-1" d="M1055.27,216.1V338.9c0,8.7.31,22.07,10.57,32,6.21,5.9,16.16,9.94,25.49,9.94s19-3.73,24.87-9c12.43-10.88,12.12-26.11,12.12-37.62V216.1h53.78V335.17c0,21.76-.93,44.45-23.32,67.14-17.41,17.72-39.17,25.8-68.39,25.8-32.64,0-56-11.19-68.7-24.86-18-19.59-20.2-46-20.2-68.08V216.1Z"/><path class="cls-1" d="M1278.15,216.1V423.45h-53.77V216.1Z"/><path class="cls-1" d="M1401.56,261.8V423.45h-53.78V261.8h-44.14V216.1h142.07v45.7Z"/><path class="cls-1" d="M1531.29,324,1456.37,216.1h64.35l39.17,56.58,37.61-56.58h65.28L1585.38,324v99.48h-54.09Z"/><path class="cls-1" d="M708.42,142.33c-14.59,5.29-22.63,7-31.72,7-24.53,0-42.93-9.72-54.56-21.14a74,74,0,0,1-21.36-51.39,74,74,0,0,1,74.65-74c6.77,0,17.77,1.06,33,7.19V53.73c-11.84-14.59-25.8-15.44-31.93-15.44-10.57,0-18.61,3.17-25.38,9.31a39.37,39.37,0,0,0-12.26,29c0,9.72,4,20.51,11.42,27.49,6.13,5.71,15.86,9.73,26.22,9.73,5.5,0,19-.64,31.93-14.81Z"/><path class="cls-1" d="M819.9,122.46H768.73l-9.52,23.68h-38.7l54.14-141h40l53.08,141H828.58Zm-9.72-27.92L794.32,48.86,778.88,94.54Z"/><path class="cls-1" d="M882.75,146.14V5.09h36.58l67.46,86.28V5.09h36.59v141H986.79L919.33,59.86v86.28Z"/><path class="cls-1" d="M1051.07,146.14V5.09h36.59l67.46,86.28V5.09h36.58v141h-36.58l-67.46-86.28v86.28Z"/><path class="cls-1" d="M1306.27,122.46H1255.1l-9.52,23.68h-38.7L1261,5.09h40l53.08,141H1315Zm-9.72-27.92-15.86-45.68-15.44,45.68Z"/><path class="cls-1" d="M1369.12,146.14V5.09h54.56c10.15,0,22.2,1.48,30.87,11,4.87,5.28,8.67,14,8.67,26.43a36.56,36.56,0,0,1-4,17.34c-3,5.5-6.14,8.67-11.42,11,7.4.84,14.8,4.23,19.24,8.46,5.71,5.49,9.52,14.59,9.52,25.8,0,13.32-5.08,22.41-10.37,27.7-7.61,7.82-20.93,13.32-38.27,13.32Zm36.58-85.43h6.77c3.81,0,10.15-.43,14-4.44,2.32-2.33,3.38-6.14,3.38-9.31a14.55,14.55,0,0,0-3.38-9.52c-2.33-2.32-6.77-4.22-14-4.22h-6.77Zm0,56.88H1414c10.15,0,18.61-1,22.63-5.71a13.71,13.71,0,0,0,3-9.09c0-4.44-1.48-8-3.6-10.15-4.44-4.44-13.53-4.65-22.62-4.65h-7.62Z"/><path class="cls-1" d="M1536.35,5.09v141h-36.59V5.09Z"/><path class="cls-1" d="M1574.39,103.85c7.82,7.4,19.66,14.38,32.35,14.38,7.4,0,11.84-2.33,14.17-4.87a12.57,12.57,0,0,0,3.6-8.88,11,11,0,0,0-4-8.46c-3.6-3.17-9.1-4.65-18.19-7.4l-9.51-3c-5.93-1.9-14.6-5.07-20.31-11.42-7.19-7.82-8-17.76-8-24.95,0-17.34,6.77-27.92,12.9-34,7.19-7.19,19-13.32,36.16-13.32,14,0,30.24,4.44,43.56,11.42l-14.59,28.55c-11-8.67-19.24-9.52-24.11-9.52-3.59,0-8.46.85-12,4.23-2.12,2.11-3.6,4.44-3.6,7.61a9.46,9.46,0,0,0,1.91,6.35c1.06,1.27,3.59,3.8,12.26,6.34l11.21,3.38c8.88,2.75,18.19,5.93,25.59,14,7.19,7.61,9.09,15.44,9.09,25.17,0,12.9-3.17,25.37-13.32,35.52-12,12.06-26.65,14.38-41.66,14.38a75.3,75.3,0,0,1-27.7-4.65,98.06,98.06,0,0,1-21.36-11.21Z"/></g><g id="Adjusted_illinois" data-name="Adjusted illinois"><path class="cls-1" d="M83.44.07c13.6,10.57,25.84,41.64,28,49.73,18.89,8.32,30.7,19.23,35.08,32.38a36.14,36.14,0,0,1-1.8,26.76c-7.76,36-21.59,60.37-41.37,72.62a52.85,52.85,0,0,1-28.11,8.21,45.14,45.14,0,0,1-6.4-.45c-17.66,3.82-28.9,9.9-31.71,17.09-2.25,5.85,1.8,12,1.91,12,15.52,16.64,22.26,33.73,19.68,50-2.36,14.84-12,24.62-17.88,29.23v40.7h-25c2.25,14.5,2.14,29.9-9.22,35.3a17.57,17.57,0,0,1-5.39,1.35C2.81,398,.45,424.4,0,428.67c.9,6.3,5.4,35,23.61,43.51l2,1.35L87.8,533.79a26.6,26.6,0,0,1,15,8.32c8.77,9.67,11.58,26.08,8.54,48.9h62.06l1.8,7.65c.45,2,11,48.79-17.43,108.6l55.65,56.55,41,4.83,2.47,3.94c6.75,10.57,39,63.18,21.25,87.13.78,12.81,4.83,28,12.25,32.94a11.69,11.69,0,0,0,6.86,1.91,22.32,22.32,0,0,0,6.18-1.13c5.29-15.28,14.51-25.29,27.32-29.79a46.67,46.67,0,0,1,15.63-2.47c16.75,0,33.95,7.42,45.76,13.94l.33-6.52c-7.08-15.18-7.53-28.11-1.46-38.23,9.89-16.64,32.94-17.53,34-17.53,3.37.22,6.18.44,8.87.44,1.47,0,2.93,0,4.05-.11a40.89,40.89,0,0,1-8.54-9.89c-10.57-17.43-.34-35.41,12.25-46.21l8.21-80.72,9.56,1.69c4-3.49,14.39-24.17,21.36-54.41l1.12-4.73,4.39-2c6.85-3.15,6.85-26.42,2.58-46.77-18.32-20.8-12.25-50.48-10.12-58.57l-11.91-95-.12-97.7-18.21-90.61,5.4-144.8C432.5,91.06,427.44,36.2,426.43,0m-38,366.55c-2.67,5-10.12,9.59-10.12,9.59l4.9,2.13a19.08,19.08,0,0,1-10.65,9.26l3.4,3.52c-4.36,6.92-13.84,11.71-13.84,11.71l2.66,4.37c-4.47,6-16.83,9.9-16.83,9.9l3.73,4.26a30,30,0,0,1-18.21,10.55l2.24,4.47c-4.05,5.86-19.82,6.82-19.82,6.82l1.71,3.51C306.3,454.1,299.06,455,299.06,455l1.38,3.2c-7.35,2.13-21.62,9.37-30.35,14.05a3.74,3.74,0,0,1,.42,1.18c6.61-1.82,15.77-4.59,20.14-6.82l.74,2.23s4.15-3,13.42-4.68l.85,2.77s8.52-7.14,13.42-6.07l1,3.3a21.2,21.2,0,0,1,14.38-3.41l.1,4.05s8.21-3.94,13.32-3.09l.74,3.51s7.14-2.13,12.78-.74l-.21,3.51a13.3,13.3,0,0,1,9.9-.42L369.67,471s6-1.28,9.8,0l-.11,1.71s11.5.53,20.56,4.79a51.77,51.77,0,0,1-13.74,3.62c-4.05.53-6.92.64-6.92.64v1.7c-3.84,1.17-9.8-.21-9.8-.21l1.38,3.51a13.48,13.48,0,0,1-9.9-.74v3.41c-5.65,1.27-12.68-1.07-12.68-1.07l-.85,3.52c-5.22.74-13.31-3.41-13.31-3.41l-.22,3.94a21.12,21.12,0,0,1-14.27-3.83l-1.06,3.4c-4.9.85-13.21-6.49-13.21-6.49l-.85,2.55c-9.27-1.91-13.31-5-13.31-5l-.86,2.23c-4.26-2.34-13.41-5.32-20-7.56a8.09,8.09,0,0,1-4.5,4.87c-.16,14.26-1.48,43.27-9.22,54.49l-5.07-3.51c6.26-9.07,7.92-34.94,8.13-50.73a7.85,7.85,0,0,1-5-5.76c-6.6,1.92-15.33,4.58-19.59,6.71l-.75-2.24s-4.15,3-13.42,4.59l-.85-2.67s-8.52,7.14-13.42,6.07l-1-3.4a21.63,21.63,0,0,1-14.37,3.51l-.11-4.05s-8.2,3.94-13.31,3.09L177,485.2s-7.14,2.13-12.68.64l.11-3.41a13.21,13.21,0,0,1-9.91.42l1.49-3.51s-6,1.28-9.79,0l.1-1.71s-11.61-.53-20.55-4.79a51.67,51.67,0,0,1,13.74-3.62c4-.53,6.92-.64,6.92-.64v-1.7c3.83-1.17,9.79.21,9.79.21l-1.38-3.51a13.51,13.51,0,0,1,9.91.74v-3.51c5.64-1.17,12.56,1.06,12.56,1.06l1-3.41c5.11-.74,13.21,3.41,13.21,3.41l.32-4A21,21,0,0,1,206,461.77l1.07-3.41c5-.85,13.21,6.49,13.21,6.49l.95-2.66c9.27,1.92,13.32,5.12,13.32,5.12l.74-2.24c4.15,2.24,13,5.22,19.6,7.35a4.52,4.52,0,0,1,.11-.54C246.34,467,232.39,459.32,225,457l1.59-3s-7.24-1.17-18.31-8.94l1.92-3.52s-15.77-1.38-19.71-7.46l2.45-4.36a30.38,30.38,0,0,1-18-11.08l4.05-4.15s-12.36-4.37-16.72-10.33l2.77-4.37s-9.27-5.11-13.53-12.14l3.73-3.3a19.19,19.19,0,0,1-10.55-9.59l5-2.13s-7.24-4.79-9.8-9.9l1.81-1.6s-11.07-12.25-16-25.56v-.11C139.2,340.67,151,352.07,151,352.07l1.7-1.71c5,2.66,9.59,10.12,9.59,10.12l2.23-4.9a19.07,19.07,0,0,1,9.27,10.65l3.51-3.41c6.82,4.48,11.61,13.85,11.61,13.85l4.48-2.66c6,4.47,9.9,16.93,9.9,16.93l4.26-3.83a30.4,30.4,0,0,1,10.54,18.31l4.48-2.34c5.86,4.05,6.81,19.92,6.81,19.92l3.52-1.81c7.45,11.29,8.31,18.53,8.31,18.53l3.09-1.39c2.12,7.25,9.16,21.09,13.84,29.82a5.13,5.13,0,0,1,1.71-.74c-3.2-11.4-8.85-31-13.32-39.51l3.94-1.39s-5.11-7.13-8-23.11l4.58-1.38s-12.24-14.7-10.43-23.11l5.85-1.71a37.15,37.15,0,0,1-6-24.81l6.92-.11s-6.71-14.27-5.32-23l6.07-1.39s-3.52-12.25-1.17-21.83l6,.21a23,23,0,0,1-.75-17.15l6.08,2.56s-2.13-10.33,0-16.83l3,.11s1-19.92,8.2-35.36c0-.1.11-.1.11-.1,6.92,15.86,7.24,35.67,7.24,35.67h3c2,6.61-.43,16.83-.43,16.83l6.08-2.34a23,23,0,0,1-1.28,17h6c2.13,9.69-1.81,21.83-1.81,21.83l6,1.49c1.27,8.84-5.86,22.9-5.86,22.9l6.81.43a36.48,36.48,0,0,1-6.6,24.49l5.75,1.81c1.6,8.52-11.18,22.79-11.18,22.79l4.58,1.6c-3.3,16-8.73,22.9-8.73,22.9l3.93,1.38c-4.57,8.42-10.75,27.48-14.27,38.88a7.9,7.9,0,0,1,2.35,1.06c4.9-8.62,12.35-22.15,14.69-29.39l3.09,1.49s1.18-7.24,8.84-18.32l3.52,1.92s.75-8.6,3.6-14.69a5.9,5.9,0,0,1,8.22-2.57,30.68,30.68,0,0,1,11.08-18l4.15,4.05s4.37-12.35,10.33-16.61L339,378.8s5.11-9.27,12.14-13.42l3.3,3.62A19.16,19.16,0,0,1,364,358.56l2.12,5s4.8-7.35,9.91-9.9l1.6,1.8s12.25-11.07,25.56-15.86h.11c-5.22,13.31-16.62,25.13-16.62,25.13Z"/></g></g></g></g></svg>